<?xml version="1.0" encoding="utf-8" ?>
<svg baseProfile="tiny" height="100%" version="1.2" width="100%" xmlns="http://www.w3.org/2000/svg" xmlns:ev="http://www.w3.org/2001/xml-events" xmlns:xlink="http://www.w3.org/1999/xlink"><defs /><path d="M 518,611 L 517,612 L 517,617 L 518,618 L 517,619 L 517,620 L 518,621 L 518,730 L 519,731 L 519,751 L 518,752 L 518,753 L 515,756 L 515,757 L 510,762 L 510,763 L 507,766 L 507,767 L 504,770 L 504,771 L 500,775 L 500,776 L 499,777 L 499,819 L 498,820 L 497,820 L 496,821 L 495,821 L 494,822 L 493,822 L 492,823 L 491,823 L 488,826 L 488,827 L 487,828 L 487,830 L 486,831 L 486,840 L 487,841 L 487,843 L 488,844 L 488,845 L 493,850 L 494,850 L 495,851 L 496,851 L 497,852 L 507,852 L 508,851 L 510,851 L 511,850 L 512,850 L 517,845 L 517,844 L 518,843 L 518,841 L 519,840 L 519,830 L 518,829 L 518,828 L 517,827 L 517,826 L 514,823 L 513,823 L 512,822 L 511,822 L 509,820 L 507,820 L 505,818 L 505,781 L 507,779 L 507,778 L 509,776 L 509,775 L 512,772 L 512,771 L 516,767 L 516,766 L 521,761 L 521,760 L 526,755 L 526,750 L 527,749 L 527,721 L 526,720 L 526,696 L 527,695 L 527,694 L 528,693 L 532,697 L 533,697 L 534,698 L 534,699 L 556,721 L 557,721 L 584,748 L 585,748 L 604,767 L 604,770 L 605,771 L 605,792 L 604,793 L 604,798 L 602,800 L 601,800 L 600,801 L 599,801 L 598,802 L 597,802 L 595,804 L 595,805 L 592,808 L 592,809 L 591,810 L 591,820 L 592,821 L 592,823 L 593,824 L 593,825 L 599,831 L 600,831 L 601,832 L 603,832 L 604,833 L 611,833 L 612,832 L 615,832 L 616,831 L 617,831 L 623,825 L 623,823 L 624,822 L 624,821 L 625,820 L 625,813 L 624,812 L 624,810 L 623,809 L 623,808 L 620,805 L 620,804 L 619,803 L 618,803 L 616,801 L 615,801 L 614,800 L 612,800 L 611,799 L 611,762 L 609,760 L 608,760 L 596,748 L 595,748 L 573,726 L 572,726 L 548,702 L 547,702 L 529,684 L 528,684 L 526,682 L 526,680 L 527,679 L 527,632 L 526,631 L 526,613 L 524,613 L 523,612 L 520,612 L 519,611 Z" fill="cyan" stroke="none" /><path d="M 820,543 L 819,544 L 817,544 L 816,545 L 815,545 L 814,546 L 813,546 L 810,549 L 810,550 L 808,552 L 808,553 L 807,554 L 807,555 L 806,556 L 806,557 L 805,558 L 792,558 L 791,559 L 751,559 L 750,558 L 742,558 L 741,559 L 741,560 L 733,568 L 733,569 L 722,580 L 721,580 L 710,591 L 710,592 L 699,603 L 686,603 L 685,604 L 603,604 L 603,643 L 604,644 L 604,648 L 606,650 L 606,651 L 608,653 L 609,653 L 626,670 L 627,670 L 638,681 L 638,682 L 643,687 L 644,687 L 654,697 L 655,697 L 673,715 L 674,715 L 694,735 L 695,735 L 700,740 L 697,743 L 697,744 L 696,745 L 696,746 L 695,747 L 695,756 L 696,757 L 696,759 L 698,761 L 698,762 L 701,765 L 702,765 L 704,767 L 706,767 L 707,768 L 714,768 L 715,767 L 717,767 L 718,766 L 719,766 L 720,765 L 721,765 L 724,762 L 724,761 L 726,759 L 726,757 L 727,756 L 727,748 L 726,747 L 726,746 L 725,745 L 725,744 L 724,743 L 724,742 L 718,736 L 717,736 L 716,735 L 707,735 L 706,736 L 705,736 L 671,702 L 671,701 L 670,700 L 669,700 L 665,696 L 665,695 L 664,695 L 635,666 L 634,666 L 616,648 L 615,648 L 610,643 L 610,611 L 611,610 L 692,610 L 693,609 L 702,609 L 703,608 L 708,613 L 709,613 L 727,631 L 728,631 L 734,637 L 735,637 L 742,644 L 743,644 L 747,648 L 748,648 L 751,651 L 752,651 L 756,655 L 757,655 L 759,657 L 760,657 L 764,661 L 765,661 L 767,663 L 766,664 L 766,666 L 765,667 L 765,677 L 766,678 L 766,680 L 767,681 L 767,682 L 769,684 L 769,685 L 771,687 L 772,687 L 773,688 L 774,688 L 775,689 L 778,689 L 779,690 L 784,690 L 785,689 L 788,689 L 789,688 L 790,688 L 791,687 L 792,687 L 795,684 L 795,683 L 797,681 L 797,679 L 798,678 L 798,667 L 797,666 L 797,665 L 796,664 L 796,663 L 791,658 L 790,658 L 789,657 L 788,657 L 787,656 L 784,656 L 783,655 L 779,655 L 778,656 L 776,656 L 775,657 L 774,657 L 773,658 L 772,658 L 771,657 L 770,657 L 767,654 L 766,654 L 763,651 L 762,651 L 759,648 L 758,648 L 753,643 L 752,643 L 748,639 L 747,639 L 742,634 L 741,634 L 733,626 L 732,626 L 722,616 L 721,616 L 712,607 L 711,607 L 709,605 L 712,602 L 712,601 L 724,589 L 724,588 L 733,579 L 733,578 L 741,570 L 741,569 L 744,566 L 745,566 L 746,565 L 754,565 L 755,566 L 768,566 L 769,565 L 806,565 L 809,568 L 809,569 L 810,570 L 810,571 L 814,575 L 815,575 L 816,576 L 817,576 L 818,577 L 820,577 L 821,578 L 826,578 L 827,577 L 829,577 L 831,575 L 832,575 L 837,570 L 837,569 L 838,568 L 838,567 L 839,566 L 839,556 L 838,555 L 838,554 L 836,552 L 836,551 L 830,545 L 829,545 L 828,544 L 824,544 L 823,543 Z" fill="cyan" stroke="none" /><path d="M 370,215 L 369,216 L 366,216 L 365,217 L 364,217 L 360,221 L 360,222 L 358,224 L 358,227 L 357,228 L 357,234 L 358,235 L 358,237 L 360,239 L 360,240 L 365,245 L 367,245 L 369,247 L 369,253 L 370,254 L 369,255 L 370,256 L 370,301 L 371,302 L 371,354 L 370,355 L 369,355 L 364,350 L 363,350 L 346,333 L 346,332 L 317,303 L 317,302 L 308,293 L 310,291 L 310,290 L 311,289 L 311,288 L 312,287 L 312,284 L 313,283 L 313,280 L 312,279 L 312,276 L 311,275 L 311,274 L 310,273 L 310,272 L 307,269 L 307,268 L 306,268 L 304,266 L 303,266 L 302,265 L 293,265 L 292,266 L 291,266 L 290,267 L 289,267 L 287,269 L 286,269 L 285,270 L 285,271 L 283,273 L 283,274 L 282,275 L 282,278 L 281,279 L 281,284 L 282,285 L 282,287 L 283,288 L 283,289 L 284,290 L 284,291 L 287,294 L 288,294 L 290,296 L 292,296 L 293,297 L 302,297 L 325,320 L 325,321 L 370,366 L 370,369 L 372,371 L 373,371 L 376,374 L 377,374 L 380,377 L 381,377 L 385,381 L 386,381 L 391,386 L 392,386 L 414,408 L 414,409 L 416,411 L 416,412 L 417,413 L 417,415 L 418,416 L 418,419 L 419,420 L 419,446 L 420,447 L 420,559 L 419,560 L 403,560 L 402,561 L 397,561 L 381,545 L 380,545 L 357,522 L 356,522 L 349,515 L 349,513 L 350,512 L 350,476 L 351,475 L 351,456 L 350,455 L 350,450 L 352,448 L 353,448 L 354,447 L 355,447 L 359,443 L 359,442 L 360,441 L 360,440 L 361,439 L 361,437 L 362,436 L 362,429 L 361,428 L 361,426 L 360,425 L 360,424 L 358,422 L 358,421 L 355,418 L 354,418 L 353,417 L 352,417 L 351,416 L 348,416 L 347,415 L 344,415 L 343,416 L 340,416 L 339,417 L 337,417 L 332,422 L 332,423 L 331,424 L 331,427 L 330,428 L 330,435 L 331,436 L 331,439 L 332,440 L 332,441 L 338,447 L 339,447 L 340,448 L 342,448 L 343,449 L 343,493 L 342,494 L 342,505 L 341,506 L 340,505 L 339,505 L 287,453 L 287,401 L 288,400 L 288,396 L 289,395 L 271,377 L 271,376 L 252,357 L 252,355 L 253,354 L 253,353 L 254,352 L 254,351 L 255,350 L 255,344 L 254,343 L 254,341 L 253,340 L 253,339 L 249,335 L 249,334 L 248,334 L 245,331 L 244,331 L 243,330 L 240,330 L 239,329 L 237,329 L 236,330 L 233,330 L 232,331 L 231,331 L 226,336 L 226,337 L 225,338 L 225,339 L 224,340 L 224,342 L 223,343 L 223,349 L 224,350 L 224,352 L 225,353 L 225,354 L 226,355 L 226,356 L 231,361 L 233,361 L 234,362 L 237,362 L 238,363 L 240,363 L 241,362 L 245,362 L 259,376 L 260,376 L 266,382 L 266,383 L 267,383 L 280,396 L 280,397 L 281,398 L 281,403 L 280,404 L 280,453 L 279,454 L 220,454 L 218,452 L 218,449 L 217,448 L 217,446 L 216,445 L 216,444 L 215,443 L 215,442 L 211,438 L 210,438 L 209,437 L 208,437 L 207,436 L 205,436 L 204,435 L 200,435 L 199,436 L 197,436 L 196,437 L 195,437 L 193,439 L 192,439 L 190,441 L 190,442 L 188,444 L 188,445 L 187,446 L 187,449 L 186,450 L 186,454 L 187,455 L 187,458 L 188,459 L 188,460 L 189,461 L 189,462 L 194,467 L 195,467 L 196,468 L 198,468 L 199,469 L 205,469 L 206,468 L 208,468 L 209,467 L 210,467 L 211,466 L 212,466 L 215,463 L 215,462 L 217,460 L 282,460 L 283,459 L 284,460 L 285,460 L 331,506 L 331,507 L 362,538 L 363,538 L 365,540 L 365,541 L 367,543 L 368,543 L 375,550 L 375,551 L 376,551 L 390,565 L 391,565 L 392,566 L 393,566 L 394,567 L 419,567 L 420,568 L 420,600 L 419,601 L 379,601 L 378,602 L 351,602 L 350,603 L 332,603 L 331,604 L 330,604 L 316,590 L 316,589 L 315,589 L 314,588 L 314,587 L 287,560 L 283,560 L 282,559 L 266,559 L 265,558 L 250,558 L 249,557 L 235,557 L 234,556 L 218,556 L 216,554 L 216,553 L 215,552 L 215,551 L 213,549 L 213,548 L 212,547 L 211,547 L 209,545 L 208,545 L 207,544 L 203,544 L 202,543 L 199,543 L 198,544 L 195,544 L 194,545 L 193,545 L 192,546 L 191,546 L 188,549 L 188,550 L 187,551 L 187,552 L 186,553 L 186,564 L 187,565 L 187,567 L 188,568 L 188,569 L 193,574 L 194,574 L 195,575 L 197,575 L 198,576 L 206,576 L 207,575 L 208,575 L 209,574 L 210,574 L 214,570 L 214,569 L 215,568 L 215,567 L 216,566 L 216,565 L 217,564 L 217,563 L 218,562 L 219,562 L 220,563 L 221,563 L 222,562 L 223,562 L 224,563 L 248,563 L 249,564 L 269,564 L 270,565 L 282,565 L 322,605 L 318,609 L 318,610 L 300,628 L 298,628 L 297,629 L 296,629 L 295,628 L 283,628 L 282,629 L 273,629 L 252,650 L 252,651 L 248,655 L 246,653 L 238,653 L 237,654 L 234,654 L 233,655 L 232,655 L 231,656 L 230,656 L 228,658 L 227,658 L 226,659 L 226,660 L 224,662 L 224,663 L 223,664 L 223,667 L 222,668 L 222,671 L 223,672 L 223,676 L 224,677 L 224,678 L 225,679 L 225,680 L 228,683 L 229,683 L 230,684 L 231,684 L 232,685 L 234,685 L 235,686 L 243,686 L 244,685 L 246,685 L 247,684 L 248,684 L 253,679 L 253,678 L 254,677 L 254,676 L 255,675 L 255,664 L 254,663 L 254,660 L 257,657 L 257,656 L 264,649 L 264,648 L 275,637 L 276,637 L 277,636 L 288,636 L 289,635 L 303,635 L 305,633 L 306,633 L 311,628 L 311,627 L 325,613 L 325,612 L 328,609 L 378,609 L 379,608 L 411,608 L 412,609 L 416,609 L 417,608 L 419,608 L 420,609 L 420,638 L 385,673 L 384,673 L 384,674 L 378,680 L 377,680 L 374,683 L 374,684 L 371,687 L 370,687 L 357,700 L 357,701 L 356,702 L 355,702 L 331,726 L 331,727 L 325,733 L 325,734 L 321,738 L 319,738 L 318,737 L 309,737 L 308,738 L 306,738 L 305,739 L 304,739 L 303,740 L 302,740 L 298,744 L 298,745 L 297,746 L 297,748 L 296,749 L 296,757 L 297,758 L 297,760 L 298,761 L 298,762 L 299,763 L 299,764 L 302,767 L 303,767 L 305,769 L 307,769 L 308,770 L 316,770 L 317,769 L 319,769 L 320,768 L 321,768 L 326,763 L 326,762 L 327,761 L 327,760 L 328,759 L 328,756 L 329,755 L 329,750 L 328,749 L 328,747 L 327,746 L 327,745 L 326,744 L 326,742 L 359,709 L 360,709 L 417,652 L 419,652 L 420,653 L 420,741 L 419,742 L 419,743 L 418,744 L 417,744 L 416,745 L 415,745 L 412,748 L 411,748 L 408,751 L 408,752 L 403,757 L 403,758 L 402,759 L 402,799 L 401,800 L 399,800 L 398,801 L 397,801 L 395,803 L 394,803 L 391,806 L 391,807 L 390,808 L 390,809 L 389,810 L 389,821 L 390,822 L 390,823 L 391,824 L 391,825 L 392,826 L 392,827 L 396,831 L 397,831 L 398,832 L 400,832 L 401,833 L 409,833 L 410,832 L 411,832 L 412,831 L 413,831 L 414,830 L 415,830 L 419,826 L 419,825 L 420,824 L 420,823 L 421,822 L 421,820 L 422,819 L 422,814 L 421,813 L 421,811 L 420,810 L 420,809 L 419,808 L 419,807 L 413,801 L 412,801 L 411,800 L 410,800 L 409,799 L 409,764 L 410,763 L 410,762 L 414,758 L 415,758 L 419,754 L 420,754 L 421,753 L 422,753 L 424,751 L 425,751 L 426,750 L 427,750 L 429,748 L 430,748 L 432,746 L 433,746 L 434,745 L 435,745 L 437,743 L 438,743 L 440,741 L 441,741 L 444,738 L 445,738 L 447,736 L 448,736 L 452,732 L 453,732 L 458,727 L 459,727 L 467,719 L 467,718 L 471,714 L 471,713 L 473,711 L 473,710 L 474,709 L 474,708 L 475,707 L 475,706 L 476,705 L 476,703 L 477,702 L 477,685 L 478,684 L 478,679 L 477,678 L 478,677 L 478,631 L 477,630 L 477,625 L 478,624 L 478,599 L 477,598 L 477,589 L 478,588 L 481,588 L 482,589 L 511,589 L 512,588 L 562,588 L 563,587 L 569,587 L 570,586 L 574,586 L 575,585 L 578,585 L 579,584 L 582,584 L 583,583 L 585,583 L 586,582 L 587,582 L 588,581 L 590,581 L 591,580 L 592,580 L 593,579 L 595,579 L 596,578 L 597,578 L 598,577 L 599,577 L 601,575 L 602,575 L 603,574 L 604,574 L 605,573 L 606,573 L 608,571 L 609,571 L 611,569 L 612,569 L 615,566 L 616,566 L 624,558 L 625,558 L 630,553 L 630,552 L 636,546 L 636,545 L 638,543 L 638,542 L 641,539 L 641,538 L 642,537 L 642,536 L 644,534 L 644,533 L 645,532 L 645,531 L 646,530 L 646,529 L 648,527 L 648,526 L 649,525 L 649,523 L 650,522 L 650,521 L 651,520 L 651,518 L 652,517 L 652,516 L 653,515 L 653,514 L 656,511 L 683,511 L 684,510 L 706,510 L 707,509 L 739,509 L 740,508 L 762,508 L 763,507 L 773,507 L 774,506 L 775,506 L 787,494 L 788,494 L 809,473 L 810,473 L 812,471 L 812,470 L 816,466 L 817,466 L 818,467 L 820,467 L 821,468 L 825,468 L 826,467 L 828,467 L 829,466 L 830,466 L 831,465 L 832,465 L 835,462 L 835,461 L 836,460 L 836,459 L 837,458 L 837,455 L 838,454 L 838,446 L 837,445 L 837,444 L 836,443 L 836,442 L 832,438 L 831,438 L 830,437 L 829,437 L 828,436 L 825,436 L 824,435 L 822,435 L 821,436 L 817,436 L 816,437 L 815,437 L 810,442 L 810,443 L 808,445 L 808,447 L 807,448 L 807,456 L 808,457 L 808,458 L 810,460 L 810,461 L 780,491 L 779,491 L 769,501 L 766,501 L 765,502 L 719,502 L 718,503 L 697,503 L 696,502 L 696,501 L 750,447 L 750,446 L 763,433 L 763,403 L 762,402 L 762,380 L 782,360 L 790,360 L 791,359 L 793,359 L 794,358 L 795,358 L 796,357 L 797,357 L 799,355 L 800,355 L 800,354 L 803,351 L 803,350 L 804,349 L 804,341 L 803,340 L 803,339 L 802,338 L 802,337 L 801,336 L 801,335 L 798,332 L 797,332 L 795,330 L 793,330 L 792,329 L 782,329 L 781,330 L 780,330 L 779,331 L 778,331 L 774,335 L 774,336 L 773,337 L 773,338 L 772,339 L 772,341 L 771,342 L 771,348 L 772,349 L 772,351 L 773,352 L 773,353 L 775,355 L 775,357 L 761,371 L 761,372 L 755,378 L 755,393 L 756,394 L 756,430 L 731,455 L 730,455 L 728,457 L 728,458 L 727,459 L 726,459 L 726,460 L 721,465 L 720,465 L 681,504 L 658,504 L 657,503 L 657,465 L 656,464 L 656,456 L 666,446 L 667,446 L 683,430 L 684,430 L 689,425 L 689,357 L 692,354 L 693,354 L 699,348 L 700,348 L 708,340 L 709,340 L 719,330 L 720,330 L 732,318 L 732,297 L 734,295 L 735,295 L 737,293 L 738,293 L 742,289 L 742,288 L 743,287 L 743,286 L 744,285 L 744,275 L 743,274 L 743,273 L 742,272 L 742,271 L 737,266 L 736,266 L 735,265 L 733,265 L 732,264 L 724,264 L 723,265 L 722,265 L 720,267 L 719,267 L 715,271 L 715,272 L 714,273 L 714,275 L 713,276 L 713,285 L 714,286 L 714,288 L 716,290 L 716,291 L 719,294 L 720,294 L 722,296 L 723,296 L 725,298 L 725,315 L 718,322 L 717,322 L 711,328 L 710,328 L 705,333 L 704,333 L 697,340 L 696,340 L 691,345 L 690,345 L 686,349 L 684,349 L 657,322 L 656,322 L 654,320 L 654,284 L 653,283 L 653,251 L 654,250 L 657,250 L 659,248 L 660,248 L 663,245 L 663,244 L 664,243 L 664,242 L 665,241 L 665,239 L 666,238 L 666,230 L 665,229 L 665,227 L 663,225 L 663,224 L 659,220 L 658,220 L 657,219 L 656,219 L 655,218 L 652,218 L 651,217 L 647,217 L 646,218 L 643,218 L 642,219 L 641,219 L 640,220 L 639,220 L 636,223 L 636,224 L 635,225 L 635,227 L 634,228 L 634,230 L 633,231 L 633,236 L 634,237 L 634,240 L 635,241 L 635,242 L 639,246 L 640,246 L 641,247 L 642,247 L 643,248 L 645,248 L 646,249 L 646,283 L 647,284 L 646,285 L 646,286 L 647,287 L 647,323 L 655,331 L 656,331 L 682,357 L 682,421 L 672,431 L 671,431 L 659,443 L 658,443 L 656,445 L 655,445 L 653,443 L 653,442 L 652,441 L 652,440 L 651,439 L 651,438 L 650,437 L 650,436 L 649,435 L 649,434 L 648,433 L 648,432 L 647,431 L 647,430 L 646,429 L 646,428 L 644,426 L 644,425 L 642,423 L 642,422 L 640,420 L 640,419 L 638,417 L 638,416 L 633,411 L 633,410 L 621,398 L 620,398 L 615,393 L 614,393 L 612,391 L 611,391 L 608,388 L 607,388 L 606,387 L 605,387 L 603,385 L 602,385 L 601,384 L 600,384 L 599,383 L 598,383 L 597,382 L 596,382 L 595,381 L 594,381 L 593,380 L 592,380 L 591,379 L 590,379 L 589,378 L 587,378 L 586,377 L 585,377 L 584,376 L 581,376 L 580,375 L 578,375 L 577,374 L 572,374 L 571,373 L 565,373 L 564,372 L 500,372 L 499,371 L 498,372 L 497,371 L 496,372 L 495,371 L 429,371 L 428,370 L 427,371 L 423,371 L 422,370 L 380,370 L 378,368 L 379,367 L 379,345 L 378,344 L 378,298 L 377,297 L 377,250 L 376,249 L 376,247 L 377,246 L 379,246 L 380,245 L 381,245 L 382,244 L 383,244 L 386,241 L 386,240 L 388,238 L 388,236 L 389,235 L 389,226 L 388,225 L 388,224 L 387,223 L 387,222 L 383,218 L 382,218 L 381,217 L 380,217 L 379,216 L 377,216 L 376,215 Z" fill="cyan" stroke="none" /><path d="M 496,122 L 496,124 L 497,125 L 497,126 L 498,127 L 498,130 L 499,131 L 499,136 L 500,137 L 500,147 L 499,148 L 499,153 L 498,154 L 498,157 L 497,158 L 497,159 L 496,160 L 496,162 L 495,163 L 495,165 L 494,166 L 494,167 L 493,168 L 493,169 L 492,170 L 492,171 L 491,172 L 491,173 L 490,174 L 490,175 L 488,177 L 488,178 L 487,179 L 487,180 L 485,182 L 485,183 L 484,184 L 484,185 L 481,188 L 481,189 L 479,191 L 479,192 L 475,196 L 475,197 L 471,201 L 471,202 L 466,207 L 466,208 L 461,213 L 461,214 L 456,219 L 456,220 L 451,225 L 451,226 L 448,229 L 448,230 L 446,232 L 446,233 L 444,235 L 444,236 L 442,238 L 442,239 L 441,240 L 441,241 L 440,242 L 440,243 L 439,244 L 439,245 L 438,246 L 438,247 L 437,248 L 437,249 L 435,251 L 435,253 L 434,254 L 434,255 L 433,256 L 433,257 L 432,258 L 432,260 L 431,261 L 431,263 L 430,264 L 430,266 L 429,267 L 429,269 L 428,270 L 428,273 L 427,274 L 427,277 L 426,278 L 426,282 L 425,283 L 425,289 L 424,290 L 424,316 L 425,317 L 425,321 L 426,322 L 426,325 L 427,326 L 427,329 L 428,330 L 428,331 L 429,332 L 429,333 L 430,334 L 430,335 L 431,336 L 431,337 L 433,339 L 433,340 L 455,340 L 456,341 L 487,341 L 488,340 L 529,340 L 530,339 L 550,339 L 551,340 L 563,340 L 564,341 L 569,341 L 570,342 L 573,342 L 574,343 L 578,343 L 579,344 L 581,344 L 582,345 L 584,345 L 585,346 L 587,346 L 588,347 L 590,347 L 591,348 L 592,348 L 593,349 L 594,349 L 595,348 L 595,347 L 596,346 L 596,345 L 597,344 L 597,343 L 598,342 L 598,341 L 599,340 L 599,339 L 600,338 L 600,336 L 601,335 L 601,333 L 602,332 L 602,329 L 603,328 L 603,326 L 604,325 L 604,321 L 605,320 L 605,312 L 606,311 L 606,292 L 605,291 L 605,286 L 604,285 L 604,282 L 603,281 L 603,278 L 602,277 L 602,275 L 601,274 L 601,272 L 600,271 L 600,270 L 599,269 L 599,268 L 598,267 L 598,266 L 597,265 L 597,264 L 596,263 L 596,262 L 595,261 L 595,260 L 593,258 L 593,257 L 590,254 L 590,253 L 585,248 L 585,247 L 574,236 L 573,236 L 573,237 L 574,238 L 574,243 L 575,244 L 575,250 L 576,251 L 576,269 L 575,270 L 575,273 L 574,274 L 574,275 L 573,276 L 573,277 L 572,278 L 572,279 L 564,287 L 563,287 L 562,288 L 561,288 L 560,289 L 558,289 L 557,290 L 546,290 L 545,289 L 542,289 L 541,288 L 540,288 L 539,287 L 538,287 L 537,286 L 536,286 L 535,285 L 534,285 L 532,283 L 531,283 L 520,272 L 520,271 L 519,270 L 519,269 L 518,268 L 518,267 L 516,265 L 516,263 L 515,262 L 515,260 L 514,259 L 514,256 L 513,255 L 513,250 L 512,249 L 512,226 L 513,225 L 513,218 L 514,217 L 514,214 L 515,213 L 515,211 L 516,210 L 516,207 L 517,206 L 517,204 L 518,203 L 518,201 L 519,200 L 519,197 L 520,196 L 520,194 L 521,193 L 521,191 L 522,190 L 522,187 L 523,186 L 523,183 L 524,182 L 524,179 L 525,178 L 525,168 L 526,167 L 525,166 L 525,159 L 524,158 L 524,155 L 523,154 L 523,153 L 522,152 L 522,150 L 520,148 L 520,147 L 519,146 L 519,145 L 518,144 L 518,143 L 516,141 L 516,140 L 511,135 L 511,134 L 510,134 L 509,133 L 509,132 L 507,130 L 506,130 L 505,129 L 505,128 L 504,128 L 502,126 L 501,126 L 499,124 L 498,124 Z" fill="cyan" stroke="none" /></svg>